<mxfile host="app.diagrams.net" modified="2023-09-26T19:14:15.906Z" agent="Mozilla/5.0 (Windows NT 10.0; Win64; x64) AppleWebKit/537.36 (KHTML, like Gecko) Chrome/117.0.0.0 Safari/537.36" etag="kBRP2GFw6tGaJWN2mUxw" version="21.8.2" type="device">
  <diagram name="Page-1" id="2k6ha30LAZkERO0c3-Ib">
    <mxGraphModel dx="1434" dy="782" grid="1" gridSize="10" guides="1" tooltips="1" connect="1" arrows="1" fold="1" page="1" pageScale="1" pageWidth="1169" pageHeight="1654" math="0" shadow="0">
      <root>
        <mxCell id="0" />
        <mxCell id="1" parent="0" />
        <mxCell id="o0IVGIlryM0w2IlBkxlB-1" value="" style="rounded=0;whiteSpace=wrap;html=1;" parent="1" vertex="1">
          <mxGeometry x="505" y="135" width="120" height="40" as="geometry" />
        </mxCell>
        <mxCell id="o0IVGIlryM0w2IlBkxlB-4" value="" style="rounded=0;whiteSpace=wrap;html=1;" parent="1" vertex="1">
          <mxGeometry x="230" y="385" width="120" height="40" as="geometry" />
        </mxCell>
        <mxCell id="o0IVGIlryM0w2IlBkxlB-5" value="" style="rounded=0;whiteSpace=wrap;html=1;" parent="1" vertex="1">
          <mxGeometry x="795" y="385" width="120" height="40" as="geometry" />
        </mxCell>
        <mxCell id="o0IVGIlryM0w2IlBkxlB-7" value="" style="rhombus;whiteSpace=wrap;html=1;" parent="1" vertex="1">
          <mxGeometry x="225" y="125" width="130" height="60" as="geometry" />
        </mxCell>
        <mxCell id="o0IVGIlryM0w2IlBkxlB-8" value="" style="rhombus;whiteSpace=wrap;html=1;" parent="1" vertex="1">
          <mxGeometry x="520" y="375" width="90" height="60" as="geometry" />
        </mxCell>
        <mxCell id="o0IVGIlryM0w2IlBkxlB-11" value="" style="edgeStyle=entityRelationEdgeStyle;fontSize=12;html=1;endArrow=ERone;endFill=1;rounded=0;entryX=1;entryY=0.5;entryDx=0;entryDy=0;exitX=0;exitY=0.5;exitDx=0;exitDy=0;" parent="1" source="o0IVGIlryM0w2IlBkxlB-8" target="o0IVGIlryM0w2IlBkxlB-4" edge="1">
          <mxGeometry width="100" height="100" relative="1" as="geometry">
            <mxPoint x="455" y="425" as="sourcePoint" />
            <mxPoint x="555" y="325" as="targetPoint" />
          </mxGeometry>
        </mxCell>
        <mxCell id="o0IVGIlryM0w2IlBkxlB-14" value="Автомобіль" style="text;html=1;strokeColor=none;fillColor=none;align=center;verticalAlign=middle;whiteSpace=wrap;rounded=0;" parent="1" vertex="1">
          <mxGeometry x="260" y="390" width="60" height="30" as="geometry" />
        </mxCell>
        <mxCell id="o0IVGIlryM0w2IlBkxlB-15" value="Співробітник" style="text;html=1;strokeColor=none;fillColor=none;align=center;verticalAlign=middle;whiteSpace=wrap;rounded=0;" parent="1" vertex="1">
          <mxGeometry x="825" y="390" width="60" height="30" as="geometry" />
        </mxCell>
        <mxCell id="o0IVGIlryM0w2IlBkxlB-16" value="Видача&lt;br&gt;авто" style="text;html=1;strokeColor=none;fillColor=none;align=center;verticalAlign=middle;whiteSpace=wrap;rounded=0;" parent="1" vertex="1">
          <mxGeometry x="535" y="390" width="60" height="30" as="geometry" />
        </mxCell>
        <mxCell id="o0IVGIlryM0w2IlBkxlB-17" value="Обслуговування" style="text;html=1;strokeColor=none;fillColor=none;align=center;verticalAlign=middle;whiteSpace=wrap;rounded=0;" parent="1" vertex="1">
          <mxGeometry x="260" y="140" width="60" height="30" as="geometry" />
        </mxCell>
        <mxCell id="o0IVGIlryM0w2IlBkxlB-18" value="" style="edgeStyle=entityRelationEdgeStyle;fontSize=12;html=1;endArrow=ERone;endFill=1;rounded=0;exitX=1;exitY=0.5;exitDx=0;exitDy=0;entryX=0;entryY=0.5;entryDx=0;entryDy=0;" parent="1" source="o0IVGIlryM0w2IlBkxlB-7" target="o0IVGIlryM0w2IlBkxlB-1" edge="1">
          <mxGeometry width="100" height="100" relative="1" as="geometry">
            <mxPoint x="455" y="335" as="sourcePoint" />
            <mxPoint x="555" y="235" as="targetPoint" />
          </mxGeometry>
        </mxCell>
        <mxCell id="o0IVGIlryM0w2IlBkxlB-23" value="СТО" style="text;html=1;strokeColor=none;fillColor=none;align=center;verticalAlign=middle;whiteSpace=wrap;rounded=0;" parent="1" vertex="1">
          <mxGeometry x="535" y="140" width="60" height="30" as="geometry" />
        </mxCell>
        <mxCell id="o0IVGIlryM0w2IlBkxlB-24" value="" style="ellipse;whiteSpace=wrap;html=1;" parent="1" vertex="1">
          <mxGeometry x="97.5" y="300" width="100" height="50" as="geometry" />
        </mxCell>
        <mxCell id="o0IVGIlryM0w2IlBkxlB-25" value="Реєстраційний&lt;br&gt;номер" style="text;html=1;strokeColor=none;fillColor=none;align=center;verticalAlign=middle;whiteSpace=wrap;rounded=0;" parent="1" vertex="1">
          <mxGeometry x="117.5" y="310" width="60" height="30" as="geometry" />
        </mxCell>
        <mxCell id="o0IVGIlryM0w2IlBkxlB-26" value="Марка" style="ellipse;whiteSpace=wrap;html=1;" parent="1" vertex="1">
          <mxGeometry x="97.5" y="380" width="100" height="50" as="geometry" />
        </mxCell>
        <mxCell id="o0IVGIlryM0w2IlBkxlB-27" value="&lt;u&gt;VIN CODE&lt;/u&gt;" style="ellipse;whiteSpace=wrap;html=1;" parent="1" vertex="1">
          <mxGeometry x="240" y="480" width="100" height="50" as="geometry" />
        </mxCell>
        <mxCell id="o0IVGIlryM0w2IlBkxlB-29" value="" style="endArrow=none;html=1;rounded=0;entryX=1;entryY=0.5;entryDx=0;entryDy=0;exitX=0;exitY=0.5;exitDx=0;exitDy=0;" parent="1" source="o0IVGIlryM0w2IlBkxlB-4" target="o0IVGIlryM0w2IlBkxlB-24" edge="1">
          <mxGeometry width="50" height="50" relative="1" as="geometry">
            <mxPoint x="470" y="395" as="sourcePoint" />
            <mxPoint x="520" y="345" as="targetPoint" />
          </mxGeometry>
        </mxCell>
        <mxCell id="o0IVGIlryM0w2IlBkxlB-30" value="" style="endArrow=none;html=1;rounded=0;entryX=1;entryY=0.5;entryDx=0;entryDy=0;" parent="1" target="o0IVGIlryM0w2IlBkxlB-26" edge="1">
          <mxGeometry width="50" height="50" relative="1" as="geometry">
            <mxPoint x="230" y="405" as="sourcePoint" />
            <mxPoint x="520" y="345" as="targetPoint" />
          </mxGeometry>
        </mxCell>
        <mxCell id="o0IVGIlryM0w2IlBkxlB-31" value="" style="endArrow=none;html=1;rounded=0;exitX=0.5;exitY=0;exitDx=0;exitDy=0;entryX=0.5;entryY=1;entryDx=0;entryDy=0;" parent="1" source="o0IVGIlryM0w2IlBkxlB-27" target="o0IVGIlryM0w2IlBkxlB-4" edge="1">
          <mxGeometry width="50" height="50" relative="1" as="geometry">
            <mxPoint x="470" y="395" as="sourcePoint" />
            <mxPoint x="520" y="345" as="targetPoint" />
          </mxGeometry>
        </mxCell>
        <mxCell id="o0IVGIlryM0w2IlBkxlB-33" value="Дата видачі" style="ellipse;whiteSpace=wrap;html=1;" parent="1" vertex="1">
          <mxGeometry x="450" y="475" width="100" height="50" as="geometry" />
        </mxCell>
        <mxCell id="o0IVGIlryM0w2IlBkxlB-34" value="Дата&amp;nbsp;&lt;br&gt;повернення" style="ellipse;whiteSpace=wrap;html=1;" parent="1" vertex="1">
          <mxGeometry x="595" y="475" width="100" height="50" as="geometry" />
        </mxCell>
        <mxCell id="o0IVGIlryM0w2IlBkxlB-35" value="" style="endArrow=none;html=1;rounded=0;exitX=0.5;exitY=0;exitDx=0;exitDy=0;entryX=0.5;entryY=1;entryDx=0;entryDy=0;" parent="1" source="o0IVGIlryM0w2IlBkxlB-33" target="o0IVGIlryM0w2IlBkxlB-8" edge="1">
          <mxGeometry width="50" height="50" relative="1" as="geometry">
            <mxPoint x="555" y="395" as="sourcePoint" />
            <mxPoint x="605" y="345" as="targetPoint" />
          </mxGeometry>
        </mxCell>
        <mxCell id="o0IVGIlryM0w2IlBkxlB-36" value="" style="endArrow=none;html=1;rounded=0;exitX=0.5;exitY=0;exitDx=0;exitDy=0;entryX=0.5;entryY=1;entryDx=0;entryDy=0;" parent="1" source="o0IVGIlryM0w2IlBkxlB-34" target="o0IVGIlryM0w2IlBkxlB-8" edge="1">
          <mxGeometry width="50" height="50" relative="1" as="geometry">
            <mxPoint x="555" y="395" as="sourcePoint" />
            <mxPoint x="605" y="345" as="targetPoint" />
          </mxGeometry>
        </mxCell>
        <mxCell id="o0IVGIlryM0w2IlBkxlB-38" value="Прізвище" style="ellipse;whiteSpace=wrap;html=1;" parent="1" vertex="1">
          <mxGeometry x="960" y="300" width="100" height="50" as="geometry" />
        </mxCell>
        <mxCell id="o0IVGIlryM0w2IlBkxlB-39" value="№ водійського&lt;br&gt;посвідчення" style="ellipse;whiteSpace=wrap;html=1;fontStyle=4" parent="1" vertex="1">
          <mxGeometry x="805" y="470" width="100" height="50" as="geometry" />
        </mxCell>
        <mxCell id="o0IVGIlryM0w2IlBkxlB-41" value="" style="endArrow=none;html=1;rounded=0;entryX=0;entryY=0.5;entryDx=0;entryDy=0;exitX=1;exitY=0.5;exitDx=0;exitDy=0;" parent="1" source="o0IVGIlryM0w2IlBkxlB-5" target="o0IVGIlryM0w2IlBkxlB-38" edge="1">
          <mxGeometry width="50" height="50" relative="1" as="geometry">
            <mxPoint x="645" y="395" as="sourcePoint" />
            <mxPoint x="695" y="345" as="targetPoint" />
          </mxGeometry>
        </mxCell>
        <mxCell id="o0IVGIlryM0w2IlBkxlB-42" value="" style="endArrow=none;html=1;rounded=0;entryX=0.5;entryY=0;entryDx=0;entryDy=0;exitX=0.5;exitY=1;exitDx=0;exitDy=0;" parent="1" source="o0IVGIlryM0w2IlBkxlB-5" target="o0IVGIlryM0w2IlBkxlB-39" edge="1">
          <mxGeometry width="50" height="50" relative="1" as="geometry">
            <mxPoint x="645" y="395" as="sourcePoint" />
            <mxPoint x="695" y="345" as="targetPoint" />
          </mxGeometry>
        </mxCell>
        <mxCell id="o0IVGIlryM0w2IlBkxlB-44" value="" style="edgeStyle=elbowEdgeStyle;fontSize=12;html=1;endArrow=ERoneToMany;rounded=0;entryX=0.5;entryY=0;entryDx=0;entryDy=0;exitX=0.5;exitY=1;exitDx=0;exitDy=0;" parent="1" source="o0IVGIlryM0w2IlBkxlB-7" target="o0IVGIlryM0w2IlBkxlB-4" edge="1">
          <mxGeometry width="100" height="100" relative="1" as="geometry">
            <mxPoint x="430" y="345" as="sourcePoint" />
            <mxPoint x="530" y="245" as="targetPoint" />
            <Array as="points">
              <mxPoint x="290" y="245" />
            </Array>
          </mxGeometry>
        </mxCell>
        <mxCell id="o0IVGIlryM0w2IlBkxlB-45" value="Адреса" style="ellipse;whiteSpace=wrap;html=1;fontStyle=0" parent="1" vertex="1">
          <mxGeometry x="690" y="130" width="100" height="50" as="geometry" />
        </mxCell>
        <mxCell id="o0IVGIlryM0w2IlBkxlB-46" value="Максимальна&lt;br&gt;кількість авто&lt;br&gt;на обслуговуванні" style="ellipse;whiteSpace=wrap;html=1;" parent="1" vertex="1">
          <mxGeometry x="478.75" y="205" width="172.5" height="65" as="geometry" />
        </mxCell>
        <mxCell id="o0IVGIlryM0w2IlBkxlB-49" value="" style="endArrow=none;html=1;rounded=0;exitX=1;exitY=0.5;exitDx=0;exitDy=0;entryX=0;entryY=0.5;entryDx=0;entryDy=0;" parent="1" source="o0IVGIlryM0w2IlBkxlB-1" target="o0IVGIlryM0w2IlBkxlB-45" edge="1">
          <mxGeometry width="50" height="50" relative="1" as="geometry">
            <mxPoint x="450" y="325" as="sourcePoint" />
            <mxPoint x="500" y="275" as="targetPoint" />
          </mxGeometry>
        </mxCell>
        <mxCell id="o0IVGIlryM0w2IlBkxlB-50" value="" style="endArrow=none;html=1;rounded=0;entryX=0.5;entryY=1;entryDx=0;entryDy=0;exitX=0.5;exitY=0;exitDx=0;exitDy=0;" parent="1" source="o0IVGIlryM0w2IlBkxlB-46" target="o0IVGIlryM0w2IlBkxlB-1" edge="1">
          <mxGeometry width="50" height="50" relative="1" as="geometry">
            <mxPoint x="450" y="325" as="sourcePoint" />
            <mxPoint x="500" y="275" as="targetPoint" />
          </mxGeometry>
        </mxCell>
        <mxCell id="o0IVGIlryM0w2IlBkxlB-51" value="Дата кінця&lt;br&gt;обслуговування" style="ellipse;whiteSpace=wrap;html=1;" parent="1" vertex="1">
          <mxGeometry x="90" y="90" width="115" height="50" as="geometry" />
        </mxCell>
        <mxCell id="o0IVGIlryM0w2IlBkxlB-52" value="Дата початку&lt;br&gt;обслуговування" style="ellipse;whiteSpace=wrap;html=1;" parent="1" vertex="1">
          <mxGeometry x="90" y="180" width="115" height="50" as="geometry" />
        </mxCell>
        <mxCell id="o0IVGIlryM0w2IlBkxlB-53" value="" style="endArrow=none;html=1;rounded=0;entryX=1;entryY=0.5;entryDx=0;entryDy=0;exitX=0;exitY=0.5;exitDx=0;exitDy=0;" parent="1" source="o0IVGIlryM0w2IlBkxlB-7" target="o0IVGIlryM0w2IlBkxlB-51" edge="1">
          <mxGeometry width="50" height="50" relative="1" as="geometry">
            <mxPoint x="580" y="415" as="sourcePoint" />
            <mxPoint x="630" y="365" as="targetPoint" />
          </mxGeometry>
        </mxCell>
        <mxCell id="o0IVGIlryM0w2IlBkxlB-54" value="" style="endArrow=none;html=1;rounded=0;exitX=1;exitY=0.5;exitDx=0;exitDy=0;entryX=0;entryY=0.5;entryDx=0;entryDy=0;" parent="1" source="o0IVGIlryM0w2IlBkxlB-52" target="o0IVGIlryM0w2IlBkxlB-7" edge="1">
          <mxGeometry width="50" height="50" relative="1" as="geometry">
            <mxPoint x="580" y="415" as="sourcePoint" />
            <mxPoint x="630" y="365" as="targetPoint" />
          </mxGeometry>
        </mxCell>
        <mxCell id="o0IVGIlryM0w2IlBkxlB-55" value="Модель" style="ellipse;whiteSpace=wrap;html=1;" parent="1" vertex="1">
          <mxGeometry x="97.5" y="470" width="100" height="50" as="geometry" />
        </mxCell>
        <mxCell id="o0IVGIlryM0w2IlBkxlB-56" value="" style="endArrow=none;html=1;rounded=0;exitX=1;exitY=0.5;exitDx=0;exitDy=0;entryX=0;entryY=0.5;entryDx=0;entryDy=0;" parent="1" source="o0IVGIlryM0w2IlBkxlB-55" target="o0IVGIlryM0w2IlBkxlB-4" edge="1">
          <mxGeometry width="50" height="50" relative="1" as="geometry">
            <mxPoint x="530" y="390" as="sourcePoint" />
            <mxPoint x="580" y="340" as="targetPoint" />
          </mxGeometry>
        </mxCell>
        <mxCell id="o0IVGIlryM0w2IlBkxlB-57" value="Ім&#39;я" style="ellipse;whiteSpace=wrap;html=1;" parent="1" vertex="1">
          <mxGeometry x="960" y="380" width="100" height="50" as="geometry" />
        </mxCell>
        <mxCell id="o0IVGIlryM0w2IlBkxlB-58" value="По-батькові" style="ellipse;whiteSpace=wrap;html=1;" parent="1" vertex="1">
          <mxGeometry x="960" y="470" width="100" height="50" as="geometry" />
        </mxCell>
        <mxCell id="o0IVGIlryM0w2IlBkxlB-59" value="" style="endArrow=none;html=1;rounded=0;entryX=0;entryY=0.5;entryDx=0;entryDy=0;exitX=1;exitY=0.5;exitDx=0;exitDy=0;" parent="1" source="o0IVGIlryM0w2IlBkxlB-5" target="o0IVGIlryM0w2IlBkxlB-58" edge="1">
          <mxGeometry width="50" height="50" relative="1" as="geometry">
            <mxPoint x="930" y="420" as="sourcePoint" />
            <mxPoint x="580" y="340" as="targetPoint" />
          </mxGeometry>
        </mxCell>
        <mxCell id="o0IVGIlryM0w2IlBkxlB-60" value="" style="endArrow=none;html=1;rounded=0;entryX=0;entryY=0.5;entryDx=0;entryDy=0;exitX=1;exitY=0.5;exitDx=0;exitDy=0;" parent="1" source="o0IVGIlryM0w2IlBkxlB-5" target="o0IVGIlryM0w2IlBkxlB-57" edge="1">
          <mxGeometry width="50" height="50" relative="1" as="geometry">
            <mxPoint x="530" y="390" as="sourcePoint" />
            <mxPoint x="580" y="340" as="targetPoint" />
          </mxGeometry>
        </mxCell>
        <mxCell id="fknmy1mysuGV_aMRLlLF-1" value="" style="edgeStyle=elbowEdgeStyle;fontSize=12;html=1;endArrow=ERoneToMany;rounded=0;entryX=0;entryY=0.5;entryDx=0;entryDy=0;exitX=1;exitY=0.5;exitDx=0;exitDy=0;" parent="1" source="o0IVGIlryM0w2IlBkxlB-8" target="o0IVGIlryM0w2IlBkxlB-5" edge="1">
          <mxGeometry width="100" height="100" relative="1" as="geometry">
            <mxPoint x="300" y="195" as="sourcePoint" />
            <mxPoint x="300" y="395" as="targetPoint" />
            <Array as="points" />
          </mxGeometry>
        </mxCell>
        <mxCell id="RUg0psA_A1PZKXrl5r80-1" value="Назва СТО" style="ellipse;whiteSpace=wrap;html=1;fontStyle=4" vertex="1" parent="1">
          <mxGeometry x="690" y="212.5" width="100" height="50" as="geometry" />
        </mxCell>
        <mxCell id="RUg0psA_A1PZKXrl5r80-8" value="" style="endArrow=none;html=1;rounded=0;entryX=0.5;entryY=1;entryDx=0;entryDy=0;exitX=0.5;exitY=0;exitDx=0;exitDy=0;" edge="1" parent="1" source="RUg0psA_A1PZKXrl5r80-1" target="o0IVGIlryM0w2IlBkxlB-1">
          <mxGeometry width="50" height="50" relative="1" as="geometry">
            <mxPoint x="570" y="460" as="sourcePoint" />
            <mxPoint x="620" y="410" as="targetPoint" />
          </mxGeometry>
        </mxCell>
        <mxCell id="RUg0psA_A1PZKXrl5r80-9" value="Вулиця" style="ellipse;whiteSpace=wrap;html=1;fontStyle=0" vertex="1" parent="1">
          <mxGeometry x="830" y="130" width="100" height="50" as="geometry" />
        </mxCell>
        <mxCell id="RUg0psA_A1PZKXrl5r80-10" value="Будинок" style="ellipse;whiteSpace=wrap;html=1;fontStyle=0" vertex="1" parent="1">
          <mxGeometry x="830" y="212.5" width="100" height="50" as="geometry" />
        </mxCell>
        <mxCell id="RUg0psA_A1PZKXrl5r80-11" value="Місто" style="ellipse;whiteSpace=wrap;html=1;fontStyle=0" vertex="1" parent="1">
          <mxGeometry x="830" y="50" width="100" height="50" as="geometry" />
        </mxCell>
        <mxCell id="RUg0psA_A1PZKXrl5r80-12" value="" style="endArrow=none;html=1;rounded=0;entryX=0;entryY=0.5;entryDx=0;entryDy=0;exitX=1;exitY=0.5;exitDx=0;exitDy=0;" edge="1" parent="1" source="o0IVGIlryM0w2IlBkxlB-45" target="RUg0psA_A1PZKXrl5r80-11">
          <mxGeometry width="50" height="50" relative="1" as="geometry">
            <mxPoint x="570" y="460" as="sourcePoint" />
            <mxPoint x="620" y="410" as="targetPoint" />
          </mxGeometry>
        </mxCell>
        <mxCell id="RUg0psA_A1PZKXrl5r80-13" value="" style="endArrow=none;html=1;rounded=0;entryX=0;entryY=0.5;entryDx=0;entryDy=0;exitX=1;exitY=0.5;exitDx=0;exitDy=0;" edge="1" parent="1" source="o0IVGIlryM0w2IlBkxlB-45" target="RUg0psA_A1PZKXrl5r80-9">
          <mxGeometry width="50" height="50" relative="1" as="geometry">
            <mxPoint x="570" y="460" as="sourcePoint" />
            <mxPoint x="620" y="410" as="targetPoint" />
          </mxGeometry>
        </mxCell>
        <mxCell id="RUg0psA_A1PZKXrl5r80-14" value="" style="endArrow=none;html=1;rounded=0;entryX=0;entryY=0.5;entryDx=0;entryDy=0;exitX=1;exitY=0.5;exitDx=0;exitDy=0;" edge="1" parent="1" source="o0IVGIlryM0w2IlBkxlB-45" target="RUg0psA_A1PZKXrl5r80-10">
          <mxGeometry width="50" height="50" relative="1" as="geometry">
            <mxPoint x="570" y="460" as="sourcePoint" />
            <mxPoint x="620" y="410" as="targetPoint" />
          </mxGeometry>
        </mxCell>
      </root>
    </mxGraphModel>
  </diagram>
</mxfile>
